<?xml version="1.0" encoding="utf-8"?>
<!-- Generator: Adobe Illustrator 25.4.1, SVG Export Plug-In . SVG Version: 6.00 Build 0)  -->
<svg version="1.1" id="Layer_1" xmlns="http://www.w3.org/2000/svg" xmlns:xlink="http://www.w3.org/1999/xlink" x="0px" y="0px"
	 viewBox="0 0 1145 168" style="enable-background:new 0 0 1145 168;" xml:space="preserve">
<style type="text/css">
	.st0{fill:#FFFFFF;}
	.st1{fill:url(#SVGID_1_);}
	.st2{fill:#0B3DD2;}
</style>
<g>
	<path class="st0" d="M1760.1-182c-8.9,0-16.4-3.1-22.5-9.4c-6.1-6.3-9.2-13.7-9.2-22.3s3.1-15.9,9.4-22.1
		c6.3-6.1,13.7-9.2,22.3-9.2c8.6,0,15.9,3.1,22.1,9.2c6.1,6.1,9.2,13.5,9.2,22.1s-3.1,16-9.2,22.3C1776-185.2,1768.6-182,1760.1-182
		z M1737.1-125.5h46V109h-46V-125.5z"/>
	<path class="st0" d="M2031.8,108.5c-15.3,2.4-33.4,3.7-54.2,3.7c-27.3,0-48.1-7.3-62.5-21.8c-14.4-14.6-21.6-36.2-21.6-65.1v-109
		h-59.8v-41.8h59.8c5.2,0-3.2,3.1,0,0c3.2-3.1,0,5.5,0,0v-82.8h46v82.8h92.4v41.8h-92.4V21.6c0,15.6,3.4,27.3,10.3,34.9
		c6.9,7.7,18.6,11.5,35.2,11.5c13.2,0,28.8-1.2,46.9-3.7v44.2H2031.8z"/>
	<path class="st0" d="M2305.3,23c-6.1,27.3-19.6,49.2-40.5,65.7c-20.8,16.6-46,24.8-75.4,24.8c-34.6,0-63.4-11.5-86.2-34.5
		s-34.3-52.1-34.3-87.3s11.4-64.4,34.3-87.4c22.8-23,51.6-34.5,86.2-34.5c29.4,0,54.6,8.4,75.6,25.1s34.4,38.7,40.2,66H2257
		c-5.2-14.1-13.8-25.4-25.7-33.8c-12-8.4-25.9-12.6-41.8-12.6c-21.2,0-38.7,7.4-52.6,22.1C2123-48.7,2116-30.3,2116-8.2
		c0,22.4,6.9,40.8,20.7,55.4s31.4,21.8,52.9,21.8c15.6,0,29.5-4.2,41.6-12.6s20.8-19.5,26-33.3L2305.3,23L2305.3,23z"/>
	<path class="st0" d="M2412.4-20.2V109h-46v-358.6h46V-91c17.5-26,42.9-39.1,76.3-39.1c29.7,0,53.7,10,71.9,29.9s27.4,46.6,27.4,80
		V109h-46V-20.2c0-19.6-5.7-35.4-17.2-47.4s-26.4-17.9-44.8-17.9c-19.3,0-35.4,6.1-48.3,18.2C2418.8-55.2,2412.4-39.5,2412.4-20.2z"
		/>
	<g>
		<path class="st0" d="M1486,67c-13.5,0-26.6-3.1-39.3-9.3c-12.7-6.2-22.6-14.4-29.6-24.5v115.7h-38.9v-185
			c0-29.6,9.9-54.2,29.8-73.8s44.7-29.4,74.6-29.4s54.6,9.7,74.4,29.2c19.7,19.5,29.6,44.1,29.6,74c0,29.6-9.6,54.2-28.8,73.8
			C1538.4,57.2,1514.6,67,1486,67z M1436.4-83c-12.3,12.5-18.5,28-18.5,46.7s6.2,34.3,18.5,46.7c12.3,12.5,27.7,18.7,46.1,18.7
			s33.7-6.2,46-18.7c12.2-12.5,18.3-28,18.3-46.7s-6.1-34.3-18.3-46.7c-12.2-12.5-27.5-18.7-46-18.7
			C1464.1-101.7,1448.7-95.4,1436.4-83z"/>
		<g>
			
				<linearGradient id="SVGID_1_" gradientUnits="userSpaceOnUse" x1="1481.8354" y1="415.0378" x2="1481.8354" y2="2.6539" gradientTransform="matrix(1 0 0 -1 0 170)">
				<stop  offset="0" style="stop-color:#EC1C24"/>
				<stop  offset="5.549872e-02" style="stop-color:#ED2424"/>
				<stop  offset="0.2942" style="stop-color:#EE4023"/>
				<stop  offset="0.5326" style="stop-color:#F05522"/>
				<stop  offset="0.7688" style="stop-color:#F16122"/>
				<stop  offset="1" style="stop-color:#F16522"/>
			</linearGradient>
			<path class="st1" d="M1326.5,95.8c-4.2-4.7-6.6-7.1-8.7-9.7c-82.4-105.2-39.6-264.9,84.4-315.3c113.3-46,237.9,11.7,276.2,127.8
				c32.9,99.9-19.1,212.2-117,252.8c-22.1,9.2-45.1,14.5-69,15.9c-7.9,0.4-11.6-1.7-11.1-10.3c0.6-10.9,0.4-21.8,0-32.7
				c-0.2-6.9,2.6-8.9,9.2-9.4c66.3-4.6,119-46.6,138.8-110.2c24.6-78.6-21.7-166.3-100.4-190.3c-84.6-25.7-169.2,18.8-194.8,103.4
				c-4.1,13.4-6,27.8-6.3,41.8c-0.8,41.2-0.3,82.5-0.4,123.7C1327.5,86.6,1327,89.7,1326.5,95.8z"/>
		</g>
	</g>
</g>
<g>
	<path id="Path_11580" class="st2" d="M382.5,97.9c0,4.3-0.8,8.5-2.5,12.4c-6.9,16.2-25.6,23.8-41.8,16.9c-5.7-2.4-10.5-6.4-14-11.5
		c-3.6-5.3-5.5-11.5-5.4-17.8h-33.5c0,36.1,29.2,65.3,65.3,65.3S416,133.9,416,97.8V0.4h-33.4V97.9z"/>
	<rect id="Rectangle_617" x="942.9" y="32" class="st2" width="33.4" height="129.8"/>
	<path class="st2" d="M568.8,71.7C563.9,60,555.7,50,545.2,42.9v0c-29.9-20.2-70.6-12.3-90.7,17.7c-20.2,29.9-12.3,70.6,17.7,90.7
		c29.9,20.2,70.6,12.3,90.7-17.7C575.2,115.3,577.4,92,568.8,71.7z M515.2,128.5c-17.3,3.6-34.3-7.5-37.9-24.8l0,0
		c-3.6-17.3,7.5-34.3,24.8-37.9c17.3-3.6,34.3,7.5,37.9,24.8C543.6,107.9,532.5,124.9,515.2,128.5z"/>
	<path id="Path_11582" class="st2" d="M730.4,71.7c-13.8-33.2-51.9-48.9-85.1-35.1c-2.5,1-4.9,2.2-7.2,3.5V0h-33.4v97.1
		c0,1.2,0,2.4,0.1,3.6c2,36.1,32.9,63.7,68.9,61.7c36.1-2,63.7-32.9,61.7-68.9C735.1,86,733.4,78.6,730.4,71.7L730.4,71.7z
		 M640.7,84.7c6.9-16.3,25.7-23.9,42-17c5.7,2.4,10.6,6.4,14,11.5c3.6,5.3,5.5,11.6,5.5,18v0.7H702c0,2.1-0.2,4.1-0.6,6.2
		c-0.4,1.9-1,3.7-1.7,5.5c-6.9,16.3-25.6,23.9-41.9,17c-5.7-2.4-10.6-6.5-14.1-11.6c-3.1-4.6-4.9-9.9-5.4-15.4
		c0-0.6-0.1-1.2-0.1-1.8v-1.3C638.3,92.4,639.1,88.4,640.7,84.7L640.7,84.7z"/>
	<path id="Path_11583" class="st2" d="M897.6,71.7c-13.8-33.2-51.8-48.9-85-35.1c-2.5,1-4.9,2.2-7.2,3.5V0h-33.5v97.1
		c0,1.2,0,2.4,0.1,3.6c2,36.1,32.9,63.7,69,61.7c36.1-2,63.7-32.9,61.7-69C902.2,85.9,900.5,78.6,897.6,71.7L897.6,71.7z
		 M807.9,84.7c6.9-16.3,25.7-23.9,42-17c5.7,2.4,10.6,6.4,14,11.5c3.6,5.3,5.5,11.6,5.4,18v0.7h-0.1c0,4-0.8,8-2.4,11.7
		c-6.8,16.3-25.6,23.9-41.8,17.1c-5.7-2.4-10.6-6.5-14.1-11.6c-3.1-4.6-4.9-9.9-5.4-15.4c0-0.6-0.1-1.2-0.1-1.8v-1.3
		C805.4,92.4,806.3,88.4,807.9,84.7L807.9,84.7z"/>
	<path id="Path_11584" class="st2" d="M1139.7,72.5c-14-33.2-52.4-48.8-85.6-34.7c-24.2,10.2-39.9,33.9-39.9,60.2l0,0v63.6h33.4
		V97.9c-0.2-17.6,13.8-32.1,31.5-32.3s32.1,13.8,32.3,31.5c0,0.3,0,0.6,0,0.9l0,62.2h33.4V97.9C1144.9,89.2,1143.1,80.5,1139.7,72.5
		z"/>
	<path id="Path_11585" class="st2" d="M33.4,89.3V62.9H0v26.4"/>
	<path id="Path_11586" class="st2" d="M97.2,89.3v13.4c0,4.3-0.8,8.5-2.5,12.4c-6.9,16.2-25.6,23.8-41.8,17
		c-5.7-2.4-10.6-6.4-14.1-11.6c-3.6-5.3-5.5-11.5-5.4-17.8H0C0,138.8,29.2,168,65.3,168s65.3-29.2,65.3-65.3V89.3H97.2z"/>
	<rect id="Rectangle_618" x="97.2" y="5.2" class="st2" width="33.4" height="70.9"/>
</g>
</svg>
