<?xml version="1.0" encoding="utf-8"?>
<!-- Generator: Adobe Illustrator 25.4.1, SVG Export Plug-In . SVG Version: 6.00 Build 0)  -->
<svg version="1.1" id="Layer_1" xmlns="http://www.w3.org/2000/svg" xmlns:xlink="http://www.w3.org/1999/xlink" x="0px" y="0px"
	 viewBox="0 0 1145 168" style="enable-background:new 0 0 1145 168;" xml:space="preserve">
<style type="text/css">
	.st0{fill:#231F20;}
	.st1{fill:#ED343B;}
	.st2{fill:#FCAF20;}
	.st3{fill:url(#SVGID_1_);}
	.st4{fill:#FFFFFF;}
</style>
<g>
	<g>
		<g>
			<path class="st0" d="M2817.9-460.4v85.1h-24.1v-33.2H2761v33.2h-24v-85.1h24.1v32h32.8v-32H2817.9z"/>
			<path class="st0" d="M2901.7-411.9v36.6h-21.5v-8.5c-3.3,6.3-9.9,9.6-19.4,9.6c-15.8,0-24.6-8.9-24.6-20.3
				c0-12.2,8.9-19.7,29.3-19.7h13.1c-0.4-6.7-4.9-10.5-14-10.5c-6.3,0-13.4,2.2-17.9,5.7l-7.8-15.7c7.5-5,18.7-7.7,29.1-7.7
				C2889.4-442.3,2901.7-432.8,2901.7-411.9z M2878.6-396.5v-5.7h-10c-7.4,0-10.1,2.7-10.1,6.7c0,3.9,3.2,6.7,8.6,6.7
				C2872.3-388.8,2876.8-391.3,2878.6-396.5z"/>
			<path class="st0" d="M2922.4-465.5h23.1v90.2h-23.1V-465.5z"/>
			<path class="st0" d="M3028.3-411.9v36.6h-21.5v-8.5c-3.3,6.3-9.9,9.6-19.4,9.6c-15.8,0-24.6-8.9-24.6-20.3
				c0-12.2,8.9-19.7,29.3-19.7h13.1c-0.4-6.7-4.9-10.5-14-10.5c-6.3,0-13.4,2.2-17.9,5.7l-7.8-15.7c7.5-5,18.7-7.7,29.1-7.7
				C3016-442.3,3028.3-432.8,3028.3-411.9z M3005.2-396.5v-5.7h-10c-7.4,0-10.1,2.7-10.1,6.7c0,3.9,3.2,6.7,8.6,6.7
				C2998.8-388.8,3003.3-391.3,3005.2-396.5z"/>
			<path class="st0" d="M3048.9-465.5h23.1v90.2h-23.1V-465.5z"/>
			<path class="st0" d="M3089.1-460.4h40.2c28.2,0,47.5,16.4,47.5,42.5s-19.3,42.5-47.5,42.5h-40.2V-460.4z M3128.3-394.5
				c14.5,0,24.2-8.6,24.2-23.3s-9.7-23.3-24.2-23.3h-15.2v46.7L3128.3-394.5L3128.3-394.5z"/>
			<path class="st0" d="M3256.2-411.9v36.6h-21.5v-8.5c-3.3,6.3-9.9,9.6-19.4,9.6c-15.8,0-24.6-8.9-24.6-20.3
				c0-12.2,8.9-19.7,29.3-19.7h13.1c-0.4-6.7-4.9-10.5-14-10.5c-6.3,0-13.4,2.2-17.9,5.7l-7.8-15.7c7.5-5,18.7-7.7,29.1-7.7
				C3243.9-442.3,3256.2-432.8,3256.2-411.9z M3233.1-396.5v-5.7h-10c-7.4,0-10.1,2.7-10.1,6.7c0,3.9,3.2,6.7,8.6,6.7
				C3226.8-388.8,3231.3-391.3,3233.1-396.5z"/>
			<path class="st0" d="M3322.4-378c-4,2.5-10,3.8-16.1,3.8c-16.9,0-26.8-8.3-26.8-25.2v-22.1h-9.6v-17.3h9.6v-17.1h23.1v17.1h15.1
				v17.3h-15.1v21.9c0,4.9,2.8,7.5,6.9,7.5c2.6,0,5.1-0.7,7.1-2.1L3322.4-378z"/>
			<g>
				<g>
					<path class="st1" d="M3337.3-441.2h23.1v65.9h-23.1V-441.2z"/>
				</g>
			</g>
			<path class="st0" d="M3451.6-413v37.7h-23.1v-33.9c0-9.5-4.1-13.5-10.8-13.5c-7.4,0-13.1,4.6-13.1,15.6v31.9h-23.1v-65.9h22v7.2
				c5.2-5.5,12.6-8.3,20.9-8.3C3439.8-442.3,3451.6-433.4,3451.6-413z"/>
			<path class="st0" d="M3544-441.2v53.9c0,24.9-14.1,36.7-38.7,36.7c-12.6,0-24.7-2.9-32.7-8.6l8.4-16.2c5.5,4.4,14.5,7,22.3,7
				c12.4,0,17.6-5.6,17.6-15.9v-2.2c-4.5,5.2-11.2,7.8-19.6,7.8c-17.5,0-32.3-12.4-32.3-31.9c0-19.3,14.8-31.7,32.3-31.7
				c9.1,0,16.2,2.9,20.7,9.1v-8L3544-441.2L3544-441.2z M3521.1-410.6c0-8-6.1-13.4-14.4-13.4s-14.5,5.4-14.5,13.4
				s6.2,13.5,14.5,13.5S3521.1-402.5,3521.1-410.6z"/>
		</g>
	</g>
	<path class="st2" d="M3348.5-450.7c-2.1-1.9-4.1-3.8-6.2-5.6c-4.5-4.1-9-8.1-13.4-12.2c-4.5-4.3-7.4-9.5-7.8-15.7
		c-0.4-5.9,1.5-11.1,6.1-15c6.3-5.2,15.3-4,20.3,2.5c0.4,0.5,0.7,0.9,0.7,0.9c1.4-1.2,2.8-2.4,4.3-3.6c9-6.7,20.9-1.9,23.5,9.4
		c1.8,8-0.8,14.9-6.3,20.4c-6.6,6.6-13.8,12.6-20.8,18.8C3348.9-450.8,3348.8-450.8,3348.5-450.7z"/>
</g>
<linearGradient id="SVGID_1_" gradientUnits="userSpaceOnUse" x1="1677.5867" y1="759.1541" x2="2422.301" y2="759.1541" gradientTransform="matrix(1 0 0 1 0 -854)">
	<stop  offset="0" style="stop-color:#FCAF20"/>
	<stop  offset="1" style="stop-color:#ED343B"/>
</linearGradient>
<path class="st3" d="M2422.3-201.7c0.2,71.1-28,129.6-78.2,178.8c-40,39.1-79.4,78.7-119.2,118c-25,24.7-47.3,25-72.8,0.1
	c-31.6-30.9-62.6-62.5-93.9-93.7c-61.3-61.3-122.6-122.6-183.8-184c-8.6-8.6-17.5-17.1-25.5-26.3c-13.2-15.2-14.7-35.6-4.5-52
	c9.6-15.4,34-26.8,50.4-19.7c17.2,7.4,28.8,23.4,41.3,37c13.3,14.5,29.4,26.2,39.8,43.4c5.3,8.6,11.5,7.1,18.2,0.1
	c19.8-20.6,40-40.7,60.2-61c4.1-4.1,10.2-7.5,3.8-14.1c-33.3-34.5-66.2-67.8-117.7-76c-101.4-16.2-191.4,75.5-172.7,176.6
	c7.8,42.3,33.1,71.9,61.7,100.4c82.9,82.8,165.8,165.8,248.9,248.4c14.4,14.3,18.9,30.7,12.4,49.4c-6,17.2-22.3,27.4-40.7,27.6
	c-11.1,0.1-20.4-3.9-28.2-11.6c-92.3-91.5-186.9-181-276.5-275.1c-102.4-107.6-86.8-273.6,34.2-360.4
	c85.2-61.1,201.7-63.3,290.3,12.2c41.4,35.3,78.3,75.8,117.1,114.1c21.9,21.6,43.6,43.5,65.5,65.1c19.7,19.5,21.6,48.4,4.2,65.6
	c-17.9,17.7-45.9,16.6-65.7-3.2c-19-18.9-37.7-38.2-56.3-57.6c-6.2-6.5-11.1-8.7-18.6-0.9c-19.4,20.2-39.2,39.9-59.4,59.3
	c-7.4,7.1-6.5,12,0.2,18.7c41.4,41,82.6,82.3,123.8,123.6c4.5,4.5,8,8.3,14.1,2c35.9-36.6,74.1-71.3,107.4-110.1
	c38.7-45.1,43.9-98.9,21.7-152.9c-23-55.8-67.6-86.1-127.5-92.6c-10.1-1.1-17.4-4.6-24.3-11.6c-15.9-16.2-32.3-32.1-48.4-48.1
	c-11.2-11.2-9.9-16.9,5.8-21c44.6-11.6,88.9-7.6,131.7,6.9C2358.7-393.5,2421.8-304.5,2422.3-201.7z"/>
<g>
	<path id="Path_11580" class="st4" d="M382.5,97.6c0,4.3-0.8,8.5-2.5,12.4c-6.9,16.2-25.6,23.8-41.8,16.9c-5.7-2.4-10.5-6.4-14-11.5
		c-3.6-5.3-5.5-11.5-5.4-17.8h-33.5c0,36.1,29.2,65.3,65.3,65.3S416,133.6,416,97.5V0.1h-33.4V97.6z"/>
	<rect id="Rectangle_617" x="942.9" y="31.7" class="st4" width="33.4" height="129.8"/>
	<path class="st4" d="M568.8,71.4c-4.9-11.7-13.2-21.7-23.7-28.8v0c-29.9-20.2-70.6-12.3-90.7,17.7c-20.2,29.9-12.3,70.6,17.7,90.7
		c29.9,20.2,70.6,12.3,90.7-17.7C575.2,115,577.4,91.7,568.8,71.4z M515.2,128.2c-17.3,3.6-34.3-7.5-37.9-24.8l0,0
		c-3.6-17.3,7.5-34.3,24.8-37.9c17.3-3.6,34.3,7.5,37.9,24.8C543.6,107.6,532.5,124.6,515.2,128.2z"/>
	<path id="Path_11582" class="st4" d="M730.4,71.4c-13.8-33.2-51.9-48.9-85.1-35.1c-2.5,1-4.9,2.2-7.2,3.5V-0.3h-33.4v97.1
		c0,1.2,0,2.4,0.1,3.6c2,36.1,32.9,63.7,68.9,61.7c36.1-2,63.7-32.9,61.7-68.9C735.1,85.7,733.4,78.3,730.4,71.4L730.4,71.4z
		 M640.7,84.4c6.9-16.3,25.7-23.9,42-17c5.7,2.4,10.6,6.4,14,11.5c3.6,5.3,5.5,11.6,5.5,18v0.7H702c0,2.1-0.2,4.1-0.6,6.2
		c-0.4,1.9-1,3.7-1.7,5.5c-6.9,16.3-25.6,23.9-41.9,17c-5.7-2.4-10.6-6.5-14.1-11.6c-3.1-4.6-4.9-9.9-5.4-15.4
		c0-0.6-0.1-1.2-0.1-1.8v-1.3C638.3,92.1,639.1,88.1,640.7,84.4L640.7,84.4z"/>
	<path id="Path_11583" class="st4" d="M897.6,71.4c-13.8-33.2-51.8-48.9-85-35.1c-2.5,1-4.9,2.2-7.2,3.5V-0.3h-33.5v97.1
		c0,1.2,0,2.4,0.1,3.6c2,36.1,32.9,63.7,69,61.7c36.1-2,63.7-32.9,61.7-69C902.2,85.6,900.5,78.3,897.6,71.4L897.6,71.4z
		 M807.9,84.4c6.9-16.3,25.7-23.9,42-17c5.7,2.4,10.6,6.4,14,11.5c3.6,5.3,5.5,11.6,5.4,18v0.7h-0.1c0,4-0.8,8-2.4,11.7
		c-6.8,16.3-25.6,23.9-41.8,17.1c-5.7-2.4-10.6-6.5-14.1-11.6c-3.1-4.6-4.9-9.9-5.4-15.4c0-0.6-0.1-1.2-0.1-1.8v-1.3
		C805.4,92.1,806.3,88.1,807.9,84.4L807.9,84.4z"/>
	<path id="Path_11584" class="st4" d="M1139.7,72.2c-14-33.2-52.4-48.8-85.6-34.7c-24.2,10.2-39.9,33.9-39.9,60.2l0,0v63.6h33.4
		V97.6c-0.2-17.6,13.8-32.1,31.5-32.3s32.1,13.8,32.3,31.5c0,0.3,0,0.6,0,0.9l0,62.2h33.4V97.6C1144.9,88.9,1143.1,80.2,1139.7,72.2
		z"/>
	<path id="Path_11585" class="st4" d="M33.4,89V62.6H0V89"/>
	<path id="Path_11586" class="st4" d="M97.2,89v13.4c0,4.3-0.8,8.5-2.5,12.4c-6.9,16.2-25.6,23.8-41.8,17
		c-5.7-2.4-10.6-6.4-14.1-11.6c-3.6-5.3-5.5-11.5-5.4-17.8H0c0,36.1,29.2,65.3,65.3,65.3s65.3-29.2,65.3-65.3V89H97.2z"/>
	<rect id="Rectangle_618" x="97.2" y="4.9" class="st4" width="33.4" height="70.9"/>
</g>
</svg>
